<svg id="visual" viewBox="0 0 900 300" width="900" height="300" xmlns="http://www.w3.org/2000/svg" xmlns:xlink="http://www.w3.org/1999/xlink" version="1.1"><rect x="0" y="0" width="900" height="300" fill="#2d362b"></rect><path d="M0 247L15 251.3C30 255.7 60 264.3 90 267.3C120 270.3 150 267.7 180 266.2C210 264.7 240 264.3 270 261C300 257.7 330 251.3 360 246.5C390 241.7 420 238.3 450 241.5C480 244.7 510 254.3 540 259.7C570 265 600 266 630 261.5C660 257 690 247 720 244.8C750 242.7 780 248.3 810 250.7C840 253 870 252 885 251.5L900 251L900 0L885 0C870 0 840 0 810 0C780 0 750 0 720 0C690 0 660 0 630 0C600 0 570 0 540 0C510 0 480 0 450 0C420 0 390 0 360 0C330 0 300 0 270 0C240 0 210 0 180 0C150 0 120 0 90 0C60 0 30 0 15 0L0 0Z" fill="#2b352a"></path><path d="M0 222L15 222C30 222 60 222 90 220.8C120 219.7 150 217.3 180 215C210 212.7 240 210.3 270 212.5C300 214.7 330 221.3 360 225.3C390 229.3 420 230.7 450 230C480 229.3 510 226.7 540 223.3C570 220 600 216 630 211.5C660 207 690 202 720 203C750 204 780 211 810 214.7C840 218.3 870 218.7 885 218.8L900 219L900 0L885 0C870 0 840 0 810 0C780 0 750 0 720 0C690 0 660 0 630 0C600 0 570 0 540 0C510 0 480 0 450 0C420 0 390 0 360 0C330 0 300 0 270 0C240 0 210 0 180 0C150 0 120 0 90 0C60 0 30 0 15 0L0 0Z" fill="#272f26"></path><path d="M0 151L15 153.8C30 156.7 60 162.3 90 167.2C120 172 150 176 180 176.7C210 177.3 240 174.7 270 174C300 173.3 330 174.7 360 175.7C390 176.7 420 177.3 450 174.5C480 171.7 510 165.3 540 166.5C570 167.7 600 176.3 630 177C660 177.7 690 170.3 720 168.7C750 167 780 171 810 172.7C840 174.3 870 173.7 885 173.3L900 173L900 0L885 0C870 0 840 0 810 0C780 0 750 0 720 0C690 0 660 0 630 0C600 0 570 0 540 0C510 0 480 0 450 0C420 0 390 0 360 0C330 0 300 0 270 0C240 0 210 0 180 0C150 0 120 0 90 0C60 0 30 0 15 0L0 0Z" fill="#232a22"></path><path d="M0 115L15 115.2C30 115.3 60 115.7 90 118.8C120 122 150 128 180 132.8C210 137.7 240 141.3 270 139.7C300 138 330 131 360 130.2C390 129.3 420 134.7 450 137.3C480 140 510 140 540 138.3C570 136.7 600 133.3 630 133.3C660 133.3 690 136.7 720 134.3C750 132 780 124 810 124.7C840 125.3 870 134.7 885 139.3L900 144L900 0L885 0C870 0 840 0 810 0C780 0 750 0 720 0C690 0 660 0 630 0C600 0 570 0 540 0C510 0 480 0 450 0C420 0 390 0 360 0C330 0 300 0 270 0C240 0 210 0 180 0C150 0 120 0 90 0C60 0 30 0 15 0L0 0Z" fill="#1f241e"></path><path d="M0 97L15 94.7C30 92.3 60 87.7 90 87.8C120 88 150 93 180 94.3C210 95.7 240 93.3 270 93.5C300 93.7 330 96.3 360 95.5C390 94.7 420 90.3 450 90.8C480 91.3 510 96.7 540 96C570 95.3 600 88.7 630 83.2C660 77.7 690 73.3 720 71.8C750 70.3 780 71.7 810 77.8C840 84 870 95 885 100.5L900 106L900 0L885 0C870 0 840 0 810 0C780 0 750 0 720 0C690 0 660 0 630 0C600 0 570 0 540 0C510 0 480 0 450 0C420 0 390 0 360 0C330 0 300 0 270 0C240 0 210 0 180 0C150 0 120 0 90 0C60 0 30 0 15 0L0 0Z" fill="#1b1f1b"></path><path d="M0 56L15 52.5C30 49 60 42 90 40.5C120 39 150 43 180 45.8C210 48.7 240 50.3 270 48.3C300 46.3 330 40.7 360 38.3C390 36 420 37 450 39.3C480 41.7 510 45.3 540 43C570 40.7 600 32.3 630 33.8C660 35.3 690 46.7 720 46.5C750 46.3 780 34.7 810 34C840 33.3 870 43.7 885 48.8L900 54L900 0L885 0C870 0 840 0 810 0C780 0 750 0 720 0C690 0 660 0 630 0C600 0 570 0 540 0C510 0 480 0 450 0C420 0 390 0 360 0C330 0 300 0 270 0C240 0 210 0 180 0C150 0 120 0 90 0C60 0 30 0 15 0L0 0Z" fill="#171a17"></path></svg>